<svg xmlns="http://www.w3.org/2000/svg" viewBox="0 0 512 512">
  <circle cx="256" cy="256" r="240" fill="#FFB3C6"/>
  <ellipse cx="256" cy="210" rx="130" ry="110" fill="#8D6E63"/>
  <ellipse cx="155" cy="240" rx="40" ry="60" fill="#8D6E63"/>
  <ellipse cx="357" cy="240" rx="40" ry="60" fill="#8D6E63"/>
  <circle cx="256" cy="230" r="100" fill="#FFCC80"/>
  <ellipse cx="220" cy="215" rx="16" ry="20" fill="#4E342E"/>
  <ellipse cx="292" cy="215" rx="16" ry="20" fill="#4E342E"/>
  <circle cx="214" cy="210" r="6" fill="white"/>
  <circle cx="286" cy="210" r="6" fill="white"/>
  <path d="M220 260 Q256 280 292 260" stroke="#E57373" stroke-width="8" fill="none" stroke-linecap="round"/>
  <circle cx="185" cy="245" r="15" fill="#FFAB91" opacity="0.5"/>
  <circle cx="327" cy="245" r="15" fill="#FFAB91" opacity="0.5"/>
  <g transform="translate(340, 165) rotate(20)">
    <path d="M0 0 Q25 -25 50 0 Q25 25 0 0Z" fill="#FF8FAB"/>
    <circle cx="25" cy="0" r="10" fill="#FF6B8A"/>
  </g>
  <path d="M165 310 Q256 290 347 310 L360 440 Q256 460 152 440 Z" fill="#FF8FAB"/>
</svg>
